<svg xmlns="http://www.w3.org/2000/svg" viewBox="0 0 1024 1024" width="1024" height="1024">
  <rect x="0" y="0" width="1024" height="1024" rx="200" fill="#1E293B"/>

  <!-- HK 3D with white border -->
  <text x="524" y="370" text-anchor="middle" font-family="'Helvetica Neue', Arial, sans-serif" font-weight="900" font-size="300" fill="#0A3D2F" opacity="0.3" letter-spacing="-22">HK</text>
  <text x="518" y="364" text-anchor="middle" font-family="'Helvetica Neue', Arial, sans-serif" font-weight="900" font-size="300" fill="#0D5E4A" opacity="0.2" letter-spacing="-22">HK</text>
  <text x="512" y="358" text-anchor="middle" font-family="'Helvetica Neue', Arial, sans-serif" font-weight="900" font-size="300" fill="#0D9488" stroke="#FFFFFF" stroke-width="8" letter-spacing="-22">HK</text>
  <text x="512" y="358" text-anchor="middle" font-family="'Helvetica Neue', Arial, sans-serif" font-weight="900" font-size="300" fill="#0D9488" letter-spacing="-22">HK</text>

  <!-- ROAD with bright white dashes -->
  <rect x="60" y="720" width="904" height="60" rx="8" fill="#0D9488" opacity="0.15"/>
  <rect x="80" y="744" width="60" height="8" rx="4" fill="#FFFFFF" opacity="0.75"/>
  <rect x="170" y="744" width="60" height="8" rx="4" fill="#FFFFFF" opacity="0.75"/>
  <rect x="260" y="744" width="60" height="8" rx="4" fill="#FFFFFF" opacity="0.75"/>
  <rect x="350" y="744" width="60" height="8" rx="4" fill="#FFFFFF" opacity="0.75"/>
  <rect x="440" y="744" width="60" height="8" rx="4" fill="#FFFFFF" opacity="0.75"/>
  <rect x="530" y="744" width="60" height="8" rx="4" fill="#FFFFFF" opacity="0.75"/>
  <rect x="620" y="744" width="60" height="8" rx="4" fill="#FFFFFF" opacity="0.75"/>
  <rect x="710" y="744" width="60" height="8" rx="4" fill="#FFFFFF" opacity="0.75"/>
  <rect x="800" y="744" width="60" height="8" rx="4" fill="#FFFFFF" opacity="0.75"/>
  <rect x="890" y="744" width="60" height="8" rx="4" fill="#FFFFFF" opacity="0.75"/>

  <!-- ARRIVAL PIN -->
  <circle cx="890" cy="580" r="50" fill="#F97316" opacity="0.15"/>
  <circle cx="890" cy="580" r="35" fill="#F97316" opacity="0.1"/>
  <path d="M890 700 L862 632 Q848 600 848 575 Q848 552 870 540 Q880 534 890 534 Q900 534 910 540 Q932 552 932 575 Q932 600 918 632 Z" fill="#F97316"/>
  <circle cx="890" cy="578" r="22" fill="#FFFFFF"/>
  <circle cx="890" cy="578" r="8" fill="#F97316"/>

  <!-- OPEN TRAILER (carretinha) -->
  <path d="M60 600 L60 660 L160 660 L160 600" fill="none" stroke="#F97316" stroke-width="10" stroke-opacity="0.6" stroke-linejoin="round"/>
  <rect x="60" y="656" width="100" height="8" rx="2" fill="#F97316" opacity="0.5"/>
  <line x1="60" y1="600" x2="60" y2="660" stroke="#F97316" stroke-width="10" opacity="0.6" stroke-linecap="round"/>
  <line x1="160" y1="600" x2="160" y2="660" stroke="#F97316" stroke-width="10" opacity="0.6" stroke-linecap="round"/>
  <rect x="62" y="658" width="96" height="6" rx="2" fill="#F97316" opacity="0.35"/>
  <!-- Trailer axle + wheel -->
  <rect x="90" y="664" width="40" height="6" rx="3" fill="#F97316" opacity="0.4"/>
  <circle cx="110" cy="678" r="22" fill="#F97316" opacity="0.55"/>
  <circle cx="110" cy="678" r="12" fill="#1E293B" opacity="0.35"/>
  <!-- Hitch bar -->
  <rect x="160" y="646" width="28" height="6" rx="3" fill="#F97316" opacity="0.5"/>

  <!-- F-350 PICKUP -->
  <!-- Caçamba (truck bed) -->
  <path d="M184 660 L184 590 L410 590 L410 660 Z" fill="#F97316"/>
  <!-- Bed rail -->
  <rect x="184" y="582" width="226" height="12" rx="3" fill="#F97316"/>
  <!-- Tailgate -->
  <rect x="176" y="586" width="14" height="74" rx="4" fill="#F97316"/>
  <!-- Rear fender -->
  <path d="M184 660 Q184 678 210 678 L300 678 Q330 678 330 660" fill="#F97316"/>

  <!-- Cabine crew cab -->
  <path d="M410 530 Q410 512 428 512 L570 512 Q588 508 598 522 L616 556 L616 660 L410 660 Z" fill="#F97316"/>
  <!-- Rear window -->
  <rect x="416" y="524" width="44" height="52" rx="5" fill="#1E293B" opacity="0.3"/>
  <!-- B-pillar -->
  <rect x="460" y="512" width="12" height="66" rx="3" fill="#F97316"/>
  <!-- Windshield raked -->
  <path d="M472 520 Q474 512 482 510 L566 508 Q582 508 590 524 L604 552 L604 578 L472 578 Z" fill="#1E293B" opacity="0.3"/>

  <!-- Capô long hood -->
  <path d="M616 556 L760 550 Q776 550 776 564 L776 660 L616 660 Z" fill="#F97316"/>
  <!-- Hood power line -->
  <line x1="624" y1="586" x2="768" y2="582" stroke="#FFFFFF" stroke-width="2.5" opacity="0.1"/>
  <!-- Body character line -->
  <line x1="184" y1="626" x2="776" y2="618" stroke="#FFFFFF" stroke-width="2.5" opacity="0.08"/>

  <!-- Grille -->
  <rect x="770" y="558" width="18" height="94" rx="5" fill="#1E293B" opacity="0.35"/>
  <!-- Headlight -->
  <rect x="772" y="562" width="14" height="12" rx="3" fill="#FFFFFF" opacity="0.5"/>
  <!-- Bumper -->
  <path d="M766 652 L792 652 Q796 652 796 658 L796 670 L766 670 Z" fill="#1E293B" opacity="0.2"/>
  <!-- Front fender -->
  <path d="M660 660 Q660 678 690 678 L770 678 Q796 678 796 660" fill="#F97316"/>

  <!-- WHEELS -->
  <!-- Rear dually -->
  <circle cx="254" cy="678" r="42" fill="#F97316"/>
  <circle cx="254" cy="678" r="26" fill="#1E293B"/>
  <circle cx="254" cy="678" r="10" fill="#F97316"/>
  <circle cx="292" cy="678" r="42" fill="#F97316"/>
  <circle cx="292" cy="678" r="26" fill="#1E293B"/>
  <circle cx="292" cy="678" r="10" fill="#F97316"/>
  <!-- Front wheel -->
  <circle cx="720" cy="678" r="42" fill="#F97316"/>
  <circle cx="720" cy="678" r="26" fill="#1E293B"/>
  <circle cx="720" cy="678" r="10" fill="#F97316"/>

  <!-- Speed lines -->
  <rect x="58" y="560" width="40" height="6" rx="3" fill="#F97316" opacity="0.2"/>
  <rect x="46" y="580" width="52" height="6" rx="3" fill="#F97316" opacity="0.15"/>
  <rect x="54" y="600" width="36" height="5" rx="2.5" fill="#F97316" opacity="0.1"/>
</svg>
