<svg xmlns="http://www.w3.org/2000/svg" viewBox="0 0 32 32" width="32" height="32">
  <rect x="0" y="0" width="32" height="32" rx="6" fill="#FFFFFF"/>
  <rect x="0" y="0" width="32" height="32" rx="6" fill="none" stroke="#E2E8F0" stroke-width="0.5"/>
  <rect x="3" y="11" width="10" height="8" rx="1.5" fill="#0D9488"/>
  <rect x="3" y="10.5" width="10" height="1" rx="0.5" fill="#F97316" opacity="0.7"/>
  <path d="M5 13 L8 13 L8 12 L11 15 L8 18 L8 17 L5 17 Z" fill="#F97316" opacity="0.85"/>
  <circle cx="6" cy="20.5" r="2.2" fill="#1E293B"/>
  <circle cx="6" cy="20.5" r="1.2" fill="#F97316" opacity="0.8"/>
  <rect x="14" y="13" width="7" height="6" rx="1" fill="#0D9488"/>
  <rect x="14" y="12" width="7" height="1.5" rx="0.75" fill="#0D9488"/>
  <text x="17.5" y="18" text-anchor="middle" font-family="Arial" font-weight="900" font-size="4.5" fill="#FFFFFF">HK</text>
  <path d="M21 10 Q21 8.5 22.5 8.5 L26 8.5 Q27.5 8.5 28 10 L28.5 19 L21 19 Z" fill="#0D9488"/>
  <path d="M22 11 Q22 9.5 23 9.5 L25.5 9.5 Q27 9.5 27 11 L27 14 L22 14 Z" fill="#FFFFFF" opacity="0.15"/>
  <path d="M28.5 12 L30.5 11.5 Q31 11.5 31 12 L31 19 L28.5 19 Z" fill="#0D9488"/>
  <circle cx="17" cy="20.5" r="2.2" fill="#1E293B"/>
  <circle cx="17" cy="20.5" r="1.2" fill="#F97316" opacity="0.8"/>
  <circle cx="20" cy="20.5" r="2.2" fill="#1E293B"/>
  <circle cx="20" cy="20.5" r="1.2" fill="#F97316" opacity="0.8"/>
  <circle cx="29" cy="20.5" r="2.2" fill="#1E293B"/>
  <circle cx="29" cy="20.5" r="1.2" fill="#F97316" opacity="0.8"/>
</svg>
