<svg xmlns="http://www.w3.org/2000/svg" viewBox="0 0 580 120" width="580" height="120">
  <g transform="translate(10, 8)">
    <path d="M2 14 L112 14 L116 82 L0 82 Q0 76 0 76 Z" fill="#0D9488"/>
    <path d="M0 50 L112 38" fill="none" stroke="#FFFFFF" stroke-width="0.7" opacity="0.12"/>
    <rect x="0" y="12" width="116" height="3" rx="1.5" fill="#F97316" opacity="0.75"/>
    <circle cx="38" cy="88" r="13" fill="#1E293B"/>
    <circle cx="38" cy="88" r="8" fill="#F97316" opacity="0.85"/>
    <circle cx="38" cy="88" r="3.5" fill="#1E293B"/>
    <path d="M22 34 L58 34 L58 24 L84 50 L58 76 L58 66 L22 66 Z" fill="#F97316" opacity="0.9"/>
    <path d="M116 70 L140 70" stroke="#1E293B" stroke-width="5" stroke-linecap="round"/>
    <circle cx="140" cy="70" r="4" fill="#1E293B"/>
    <path d="M140 24 L220 22 L222 82 L140 82 Z" fill="#0D9488"/>
    <rect x="138" y="18" width="84" height="6" rx="2" fill="#0D9488"/>
    <rect x="138" y="18" width="84" height="2" rx="1" fill="#FFFFFF" opacity="0.2"/>
    <text x="180" y="62" text-anchor="middle" font-family="'Helvetica Neue', Arial, sans-serif" font-weight="900" font-size="30" fill="#FFFFFF" opacity="0.95" letter-spacing="-2">HK</text>
    <rect x="164" y="66" width="32" height="2" rx="1" fill="#F97316" opacity="0.7"/>
    <path d="M222 4 Q222 0 230 0 L284 0 Q298 0 302 14 L306 28 L308 82 L222 82 Z" fill="#0D9488"/>
    <path d="M224 10 L242 10 L242 42 L224 42 Z" fill="#FFFFFF" opacity="0.14"/>
    <rect x="242" y="4" width="6" height="42" rx="2" fill="#0D9488"/>
    <path d="M248 8 Q250 2 258 2 L282 0 Q296 0 300 14 L304 30 L304 42 L248 42 Z" fill="#FFFFFF" opacity="0.18"/>
    <path d="M308 22 L368 20 Q376 20 376 28 L376 82 L308 82 Z" fill="#0D9488"/>
    <line x1="302" y1="38" x2="352" y2="36" stroke="#FFFFFF" stroke-width="0.6" opacity="0.12"/>
    <rect x="372" y="26" width="12" height="50" rx="4" fill="#1E293B" opacity="0.45"/>
    <line x1="374" y1="34" x2="382" y2="34" stroke="#FFFFFF" stroke-width="0.7" opacity="0.15"/>
    <line x1="374" y1="42" x2="382" y2="42" stroke="#FFFFFF" stroke-width="0.7" opacity="0.15"/>
    <line x1="374" y1="50" x2="382" y2="50" stroke="#FFFFFF" stroke-width="0.7" opacity="0.15"/>
    <line x1="374" y1="58" x2="382" y2="58" stroke="#FFFFFF" stroke-width="0.7" opacity="0.15"/>
    <rect x="374" y="28" width="8" height="3" rx="1.5" fill="#F97316" opacity="0.9"/>
    <rect x="374" y="66" width="8" height="2" rx="1" fill="#FFFFFF" opacity="0.4"/>
    <path d="M370 76 L386 76 Q388 76 388 80 L388 86 L370 86 Z" fill="#1E293B" opacity="0.25"/>
    <rect x="140" y="80" width="240" height="2.5" rx="1.25" fill="#F97316" opacity="0.45"/>
    <line x1="140" y1="48" x2="376" y2="44" stroke="#FFFFFF" stroke-width="0.6" opacity="0.1"/>
    <circle cx="168" cy="88" r="13" fill="#1E293B"/>
    <circle cx="168" cy="88" r="8" fill="#F97316" opacity="0.8"/>
    <circle cx="168" cy="88" r="3.5" fill="#1E293B"/>
    <circle cx="192" cy="88" r="13" fill="#1E293B"/>
    <circle cx="192" cy="88" r="8" fill="#F97316" opacity="0.8"/>
    <circle cx="192" cy="88" r="3.5" fill="#1E293B"/>
    <circle cx="342" cy="88" r="13" fill="#1E293B"/>
    <circle cx="342" cy="88" r="8" fill="#F97316" opacity="0.8"/>
    <circle cx="342" cy="88" r="3.5" fill="#1E293B"/>
    <line x1="-20" y1="32" x2="-6" y2="32" stroke="#F97316" stroke-width="3" stroke-linecap="round"/>
    <line x1="-26" y1="48" x2="-6" y2="48" stroke="#F97316" stroke-width="3" stroke-linecap="round" opacity="0.55"/>
    <line x1="-18" y1="64" x2="-6" y2="64" stroke="#F97316" stroke-width="2" stroke-linecap="round" opacity="0.3"/>
  </g>
  <text x="418" y="52" font-family="'Helvetica Neue', Arial, sans-serif" font-weight="900" font-size="50" letter-spacing="-2">
    <tspan fill="#1E293B">HAUL</tspan><tspan fill="#0D9488">KIND</tspan>
  </text>
  <text x="420" y="78" font-family="'Helvetica Neue', Arial, sans-serif" font-weight="600" font-size="11" fill="#F97316" letter-spacing="5">JUNK REMOVAL &amp; HAULING</text>
</svg>
