<svg xmlns="http://www.w3.org/2000/svg" viewBox="0 0 1200 630" width="1200" height="630">
  <rect x="0" y="0" width="1200" height="630" fill="#1E293B"/>
  <g transform="translate(170, 140) scale(0.85)">
    <path d="M2 14 L112 14 L116 82 L0 82 Q0 76 0 76 Z" fill="#0D9488"/>
    <rect x="0" y="12" width="116" height="3" rx="1.5" fill="#F97316" opacity="0.75"/>
    <circle cx="38" cy="88" r="13" fill="#FFFFFF" opacity="0.2"/>
    <circle cx="38" cy="88" r="8" fill="#F97316" opacity="0.8"/>
    <circle cx="38" cy="88" r="3.5" fill="#1E293B"/>
    <path d="M22 34 L58 34 L58 24 L84 50 L58 76 L58 66 L22 66 Z" fill="#F97316" opacity="0.9"/>
    <path d="M116 70 L140 70" stroke="#FFFFFF" stroke-width="5" stroke-linecap="round" opacity="0.3"/>
    <circle cx="140" cy="70" r="4" fill="#FFFFFF" opacity="0.3"/>
    <path d="M140 24 L220 22 L222 82 L140 82 Z" fill="#0D9488"/>
    <rect x="138" y="18" width="84" height="6" rx="2" fill="#0D9488"/>
    <text x="180" y="62" text-anchor="middle" font-family="'Helvetica Neue', Arial, sans-serif" font-weight="900" font-size="30" fill="#FFFFFF" opacity="0.95" letter-spacing="-2">HK</text>
    <rect x="164" y="66" width="32" height="2" rx="1" fill="#F97316" opacity="0.7"/>
    <path d="M222 4 Q222 0 230 0 L284 0 Q298 0 302 14 L306 28 L308 82 L222 82 Z" fill="#0D9488"/>
    <path d="M248 8 Q250 2 258 2 L282 0 Q296 0 300 14 L304 30 L304 42 L248 42 Z" fill="#FFFFFF" opacity="0.18"/>
    <rect x="242" y="4" width="6" height="42" rx="2" fill="#0D9488"/>
    <path d="M308 22 L368 20 Q376 20 376 28 L376 82 L308 82 Z" fill="#0D9488"/>
    <rect x="372" y="26" width="12" height="50" rx="4" fill="#FFFFFF" opacity="0.15"/>
    <rect x="374" y="28" width="8" height="3" rx="1.5" fill="#F97316" opacity="0.9"/>
    <rect x="140" y="80" width="240" height="2.5" rx="1.25" fill="#F97316" opacity="0.45"/>
    <circle cx="168" cy="88" r="13" fill="#FFFFFF" opacity="0.15"/>
    <circle cx="168" cy="88" r="8" fill="#F97316" opacity="0.8"/>
    <circle cx="192" cy="88" r="13" fill="#FFFFFF" opacity="0.15"/>
    <circle cx="192" cy="88" r="8" fill="#F97316" opacity="0.8"/>
    <circle cx="342" cy="88" r="13" fill="#FFFFFF" opacity="0.15"/>
    <circle cx="342" cy="88" r="8" fill="#F97316" opacity="0.8"/>
    <line x1="-20" y1="32" x2="-6" y2="32" stroke="#F97316" stroke-width="3" stroke-linecap="round"/>
    <line x1="-26" y1="48" x2="-6" y2="48" stroke="#F97316" stroke-width="3" stroke-linecap="round" opacity="0.55"/>
    <line x1="-18" y1="64" x2="-6" y2="64" stroke="#F97316" stroke-width="2" stroke-linecap="round" opacity="0.3"/>
  </g>
  <text x="600" y="380" text-anchor="middle" font-family="'Helvetica Neue', Arial, sans-serif" font-weight="900" font-size="72" letter-spacing="-3">
    <tspan fill="#FFFFFF">HAUL</tspan><tspan fill="#5EEAD4">KIND</tspan>
  </text>
  <text x="600" y="430" text-anchor="middle" font-family="'Helvetica Neue', Arial, sans-serif" font-weight="600" font-size="22" fill="#F97316" letter-spacing="6">FAST, FAIR JUNK REMOVAL</text>
  <line x1="420" y1="460" x2="780" y2="460" stroke="#0D9488" stroke-width="1.5" opacity="0.4"/>
  <text x="600" y="500" text-anchor="middle" font-family="'Helvetica Neue', Arial, sans-serif" font-weight="400" font-size="24" fill="#94A3B8" letter-spacing="3">PA  ·  NJ  ·  NY</text>
  <text x="600" y="545" text-anchor="middle" font-family="'Helvetica Neue', Arial, sans-serif" font-weight="500" font-size="26" fill="#F97316">(609) 456-8188  ·  haulkind.com</text>
</svg>
